<?xml version="1.0" encoding="UTF-8" standalone="no"?>
<!-- Created with Inkscape (http://www.inkscape.org/) -->

<svg
   xmlns:dc="http://purl.org/dc/elements/1.1/"
   xmlns:cc="http://creativecommons.org/ns#"
   xmlns:rdf="http://www.w3.org/1999/02/22-rdf-syntax-ns#"
   xmlns:svg="http://www.w3.org/2000/svg"
   xmlns="http://www.w3.org/2000/svg"
   xmlns:sodipodi="http://sodipodi.sourceforge.net/DTD/sodipodi-0.dtd"
   xmlns:inkscape="http://www.inkscape.org/namespaces/inkscape"
   width="903.5957"
   height="252.95151"
   id="svg4057"
   version="1.1"
   inkscape:version="0.48.4 r9939"
   sodipodi:docname="New document 5">
  <defs
     id="defs4059" />
  <sodipodi:namedview
     id="base"
     pagecolor="#ffffff"
     bordercolor="#666666"
     borderopacity="1.0"
     inkscape:pageopacity="0.0"
     inkscape:pageshadow="2"
     inkscape:zoom="0.98994949"
     inkscape:cx="336.69314"
     inkscape:cy="-16.52547"
     inkscape:document-units="px"
     inkscape:current-layer="layer1"
     showgrid="false"
     fit-margin-top="10"
     fit-margin-left="10"
     fit-margin-right="10"
     fit-margin-bottom="10"
     inkscape:window-width="1920"
     inkscape:window-height="988"
     inkscape:window-x="0"
     inkscape:window-y="33"
     inkscape:window-maximized="1" />
  <metadata
     id="metadata4062">
    <rdf:RDF>
      <cc:Work
         rdf:about="">
        <dc:format>image/svg+xml</dc:format>
        <dc:type
           rdf:resource="http://purl.org/dc/dcmitype/StillImage" />
        <dc:title></dc:title>
      </cc:Work>
    </rdf:RDF>
  </metadata>
  <g
     inkscape:label="Layer 1"
     inkscape:groupmode="layer"
     id="layer1"
     transform="translate(46.083589,-97.315004)">
    <g
       style="font-size:11.04515648px;font-style:normal;font-variant:normal;font-weight:500;font-stretch:normal;line-height:77.99999714%;letter-spacing:0px;word-spacing:0px;fill:#fffff6;fill-opacity:1;stroke:none;font-family:Patagonia;-inkscape-font-specification:Patagonia Medium"
       id="text4028">
      <path
         d="m 37.787459,178.87333 c -5.849819,6.25795 -7.210254,17.41344 -11.427565,23.3993 -2.856889,-0.13604 -5.4417,-1.90459 -7.618377,-1.90459 -2.448762,0 -4.217316,2.31272 -4.217316,4.4894 0,2.31272 1.224382,4.89753 1.224382,7.75442 l 0,0.27208 c 2.448761,0.68021 5.305658,0.9523 8.162547,0.9523 7.482327,0 15.78093,-1.63251 22.583046,-1.63251 2.176677,0 4.217317,0.27208 5.985867,0.68021 0.136043,-2.99293 1.496467,-5.30566 1.496467,-7.75442 0,-0.95229 -0.136043,-1.90459 -0.680212,-2.85689 -1.224381,-2.31272 -4.489402,-1.08834 -5.713783,-3.26502 -0.544169,-1.08834 -0.816254,-2.04064 -0.816254,-2.99293 0,-1.49647 0.408127,-2.99294 0.816254,-4.89753 1.904593,-13.1961 5.441702,-20.27034 9.795056,-32.92227 5.441693,-15.64487 8.978808,-23.39932 15.508839,-39.45231 0.272085,-0.54417 0.408128,-1.22438 0.408128,-1.9046 0,-4.48939 -5.84983,-9.52297 -10.611311,-9.52297 -1.224381,0 -2.448765,0.27209 -3.401061,1.08834 -15.100697,14.01236 -10.475275,8.57068 -16.597179,14.69259 -9.386919,9.659 -13.468211,16.18906 -22.038876,26.39223 -15.3727811,18.50176 -22.3109799,30.74561 -41.084819,49.51945 l -0.680212,0 c -2.720846,0 -5.305658,-0.81625 -7.482334,-0.81625 -4.489397,0 -7.482335,4.4894 -7.482335,8.43463 0,1.63251 0.408128,3.26502 1.496467,4.62544 1.496465,1.90459 3.401063,2.44877 5.441698,2.44877 2.720846,0 5.849828,-0.9523 8.978801,-0.9523 0.544169,0 1.08834,0.13604 1.63251,0.13604 1.088338,0 2.040637,-0.13604 2.992933,-0.13604 2.992931,0 5.8498281,0.27208 8.434632,0.27208 3.5371,0 6.80212528,-0.40812 9.7950561,-1.76855 0.5441692,-2.85689 2.3127216,-5.03357 2.3127216,-7.48233 0,-0.68021 -0.2720853,-1.49647 -0.6802123,-2.31272 -1.2243807,-2.17668 -3.53710573,-1.49647 -5.7137827,-2.44877 1.90459235,-9.25087 8.7067201,-15.91697 12.2438203,-24.48764 3.401058,0 5.849828,-0.40813 8.570674,-0.40813 7.890454,0 11.835699,2.8569 18.36573,4.76149 m 9.795056,-26.52828 c 0,5.57774 -4.081278,8.29859 -8.706716,8.84276 -0.54417,0 -1.224383,0.13604 -1.768552,0.13604 -3.265016,0 -6.257954,-1.08834 -7.21025,-4.21731 0.272085,-4.21731 6.121912,-8.02651 8.162547,-13.06008 0.680212,-0.27208 1.496468,-0.40812 2.176679,-0.40812 4.081269,0 7.346292,5.03357 7.346292,8.70671"
         style="font-size:139.3074646px;font-style:italic;text-align:end;line-height:77.99999714%;text-anchor:end;fill:#fffff6;font-family:Essays1743;-inkscape-font-specification:Essays1743 Medium"
         id="path4589" />
      <path
         d="m 104.31221,158.19488 c 0,-4.4894 -4.08127,-8.9788 -8.706712,-8.9788 -3.128973,0 -6.530041,1.63251 -9.931099,2.99293 -3.128973,1.49647 -4.489402,3.26502 -6.12191,6.25795 -1.632507,3.12898 -1.360425,5.4417 -1.768551,8.9788 -0.136043,0.68022 -0.136043,1.36043 -0.136043,2.04064 0,7.48233 5.441698,14.42051 5.441698,20.67845 0,2.58481 -1.768555,7.75442 -5.305655,7.75442 -1.224381,0 -2.584808,-0.54417 -3.945231,-1.08834 -1.632508,-0.68021 -1.496469,-2.85689 -3.265019,-3.26502 -0.680212,-0.13604 -1.360425,-0.27208 -2.040637,-0.27208 -2.040634,0 -3.945232,0.81626 -5.169613,2.72085 -1.360423,2.04063 -2.040636,4.21732 -2.040636,6.53004 0,2.44876 0.816256,4.76148 2.856891,6.53003 2.176677,2.04064 4.761488,2.85689 7.346292,2.85689 3.673142,0 7.482338,-1.63251 11.291523,-3.67314 5.033565,-2.58481 7.074209,-6.12192 8.842759,-11.42757 1.360423,-4.21731 2.312722,-7.89046 2.312722,-11.5636 0,-3.26502 -0.816257,-6.66609 -2.312722,-10.47527 -1.224381,-2.85689 -5.169613,-2.58481 -5.57774,-5.71379 0,-0.40812 -0.136043,-0.81625 -0.136043,-1.22438 0,-2.85689 1.360428,-5.57774 4.217316,-6.12191 l 0.272085,0 c 1.632508,0 1.768554,2.72085 3.537104,3.26502 1.496465,0.40813 2.992935,0.81626 4.353358,0.81626 3.809183,0 5.985863,-4.08128 5.985863,-7.61838"
         style="font-size:139.3074646px;font-style:italic;text-align:end;line-height:77.99999714%;text-anchor:end;fill:#fffff6;font-family:Essays1743;-inkscape-font-specification:Essays1743 Medium"
         id="path4591" />
      <path
         d="m 128.11964,189.3486 c -3.26501,0 -5.57774,5.4417 -8.57067,5.4417 -1.22438,0 -2.31272,-0.68022 -2.31272,-1.76856 0,-0.95229 0.54417,-2.17668 0.54417,-3.26501 l 0,-0.27209 c 3.12897,-11.83568 9.79506,-19.99825 14.69258,-27.75266 l 0.68021,0 c 2.17668,0 4.08128,0.68021 5.84983,0.68021 3.5371,0 6.12191,-3.94523 6.12191,-7.0742 0,-1.9046 -1.36043,-4.35336 -3.40106,-4.35336 -1.49647,0 -3.12898,0.68021 -4.89753,0.68021 l -0.27208,0 c -0.13605,-0.54417 -0.13605,-0.9523 -0.13605,-1.36042 0,-4.4894 3.12898,-7.75443 3.12898,-11.42757 0,-0.9523 -0.27209,-1.90459 -0.81626,-2.99293 -2.5848,-1.76855 -3.40106,-4.4894 -6.53003,-4.62545 l -0.27209,0 c -2.99293,0 -4.08127,2.72085 -6.80212,4.35336 -2.04063,10.20318 -1.36043,10.47527 -4.08127,13.87633 -0.54417,0.13604 -1.08834,0.13604 -1.63251,0.13604 -1.76855,0 -3.40107,-0.27208 -4.89753,-0.27208 -4.21731,0 -7.61838,4.08128 -7.61838,7.75442 0,1.49646 0.81626,3.67314 2.58481,3.67314 1.63251,0 3.5371,-1.36042 5.16961,-1.36042 1.22438,0 2.17668,1.22438 2.17668,2.44876 0,1.36043 -0.9523,2.8569 -1.49647,4.48941 -1.6325,5.98586 -4.35336,8.84276 -6.53003,14.69258 -2.85689,7.48233 -7.3463,12.51591 -7.3463,19.45407 0,6.39399 2.99294,11.29152 9.25089,11.29152 2.85689,0 5.03357,-1.90459 7.89046,-3.5371 6.39399,-3.80919 12.78799,-5.71379 13.87633,-13.06008 0,-0.27208 0.13604,-0.68021 0.13604,-0.95229 0,-2.31272 -1.63251,-4.89753 -4.4894,-4.89753"
         style="font-size:139.3074646px;font-style:italic;text-align:end;line-height:77.99999714%;text-anchor:end;fill:#fffff6;font-family:Essays1743;-inkscape-font-specification:Essays1743 Medium"
         id="path4593" />
      <path
         d="m 158.59315,164.86096 c 0,2.44876 -1.49646,5.71378 -2.17668,8.57067 -2.5848,8.84275 -8.0265,12.10779 -12.10777,20.27033 -2.04064,4.08127 -5.57774,6.93817 -5.57774,10.61131 0,3.80918 2.72085,5.98587 5.84982,5.98587 0.40813,0 0.81626,-0.13605 1.22438,-0.13605 3.94523,-0.68021 4.76149,-4.21732 7.3463,-7.34629 5.84981,-7.61837 7.21025,-13.33217 13.06007,-21.22262 5.30565,-6.93816 6.53005,-17.14135 14.96467,-17.14135 l 0.54417,0 c 2.44876,0.13604 1.36043,4.62544 3.67315,4.89753 l 0.40812,0 c 2.04064,0 2.8569,-2.17668 4.08128,-3.94523 1.90459,-2.85689 3.94523,-5.30566 3.94523,-8.16255 0,-0.81625 -0.13605,-1.76855 -0.68022,-2.72085 -0.95229,-1.76855 -2.5848,-2.04063 -4.4894,-2.04063 l -1.76855,0 c -2.85689,0.13604 -4.08127,1.76855 -6.80212,2.99293 -3.5371,0.9523 -3.80919,4.89753 -9.79506,7.34629 -0.81625,-3.67314 0.54417,-6.80212 -2.17668,-9.52297 -1.6325,-1.22438 -3.26502,-1.90459 -5.03357,-1.90459 -1.49646,0 -3.12897,0.40812 -4.76148,0.81625 -2.72085,0.68021 -3.67315,2.44877 -5.98587,4.08127 0,0 -7.61838,5.16962 -7.61838,11.8357 0,0.68021 0.13605,1.36042 0.27209,2.04063 3.94523,-3.12897 5.84983,-9.38693 9.65901,-9.38693 2.44876,0 3.94523,2.04064 3.94523,4.08128"
         style="font-size:139.3074646px;font-style:italic;text-align:end;line-height:77.99999714%;text-anchor:end;fill:#fffff6;font-family:Essays1743;-inkscape-font-specification:Essays1743 Medium"
         id="path4595" />
      <path
         d="m 191.51543,206.62599 c 3.40106,3.5371 7.3463,5.30565 11.69965,5.30565 1.76855,0 3.67315,-0.40812 5.71379,-0.95229 6.66607,-1.90459 8.70672,-7.07422 12.24382,-13.06008 6.25794,-10.6113 8.9788,-17.82157 9.52297,-30.20142 0.13604,-1.76855 0.27208,-3.40106 0.27208,-4.89753 0,-2.5848 -0.54417,-4.89753 -2.72085,-6.80212 -2.99293,-2.5848 -6.25795,-3.80919 -9.65901,-3.80919 -2.85689,0 -5.98587,0.9523 -9.11484,2.17668 -9.11484,4.08127 -11.15549,11.01945 -15.78093,19.8622 -3.40105,6.66607 -5.16961,11.01944 -5.44169,18.50177 0,1.49647 -0.13605,2.85689 -0.13605,4.21732 0,3.67314 0.54418,6.80212 3.40106,9.65901 m 6.25796,-8.9788 c 0,-1.08834 0.27208,-2.44877 0.27208,-3.80919 0.40813,-7.61837 1.9046,-11.97174 5.71378,-18.77386 2.99293,-5.16961 4.89754,-9.25089 10.61131,-11.42756 1.22439,-0.40813 2.44877,-0.68022 3.53711,-0.68022 2.5848,0 5.03357,2.04064 5.03357,4.62545 0,1.22438 -0.27209,2.5848 -0.54417,3.94523 -0.9523,7.48233 -3.12898,11.56361 -6.80212,18.22969 -2.72085,4.89752 -3.67315,8.70672 -8.57068,11.42756 -1.49646,0.9523 -3.12898,1.76855 -4.76148,1.76855 -2.99293,0 -4.4894,-2.58481 -4.4894,-5.30565"
         style="font-size:139.3074646px;font-style:italic;text-align:end;line-height:77.99999714%;text-anchor:end;fill:#fffff6;font-family:Essays1743;-inkscape-font-specification:Essays1743 Medium"
         id="path4597" />
      <path
         d="m 277.6303,164.86096 c 0,2.5848 -1.36043,4.21732 -1.9046,6.93816 -1.08834,5.4417 -1.63251,8.43464 -2.5848,13.87633 -1.9046,5.16961 -6.39401,1.2244 -13.60425,17.14135 0,5.16961 1.36043,6.394 2.44877,8.16255 1.36042,0.27208 2.72085,0.40812 3.94523,0.40812 3.12897,0 5.84983,-0.68021 8.84276,-0.68021 3.26501,-2.17667 5.16961,-2.99293 8.43463,-5.4417 3.80918,-2.99293 8.70671,-3.80919 8.70671,-9.79505 0,-2.44876 -1.08834,-4.62545 -3.40106,-5.71378 -0.54417,-0.27209 -1.08834,-0.40813 -1.49646,-0.40813 -1.36043,0 -2.44877,1.08834 -4.62545,2.04064 -0.27208,0.13604 -0.40812,0.13604 -0.54417,0.13604 -0.27208,0 -0.40812,-0.27209 -0.40812,-0.68021 0,-1.36043 1.36042,-4.35336 1.76855,-5.98587 2.04063,-6.80212 7.48233,-9.2509 8.16254,-16.3251 0.27209,-2.44876 0.54417,-4.89753 0.54417,-7.21025 0,-4.89752 -1.22438,-9.25088 -5.71378,-11.83569 -0.81625,-0.40813 -1.49647,-0.54417 -2.17668,-0.54417 -2.5848,0 -4.89753,2.58481 -8.16254,3.40106 -6.66608,5.98586 -11.15549,9.11485 -13.06008,12.92404 0.81625,-3.80919 2.17668,-5.84983 2.17668,-9.52298 l 0,-0.54417 c -0.13604,-2.85688 -1.36043,-4.35336 -2.17668,-7.0742 -1.36042,-0.81626 -2.58481,-1.22438 -3.80919,-1.22438 -3.12897,0 -6.12191,2.31272 -10.06714,4.4894 -5.03356,5.03356 -10.8834,7.89046 -14.69258,14.69258 0.27208,0.68021 0.27208,1.49647 0.27208,2.17668 l 0,0.40813 c 0,1.76855 0.40813,3.40106 2.44877,3.40106 2.99293,0 4.89753,-5.4417 7.75442,-5.4417 2.04063,0 2.85689,1.9046 2.85689,3.67315 0,0.40812 -0.13605,0.95229 -0.13605,1.49646 -0.27208,5.57774 -3.5371,8.02651 -5.84982,13.06008 -2.5848,6.25794 -7.07421,7.21026 -9.9311,18.63781 1.63251,7.48233 5.57775,9.52297 10.33923,9.52297 1.08834,0 2.31272,-0.13604 3.5371,-0.27208 3.94523,-0.9523 2.17668,-6.53004 6.12191,-11.01944 5.30565,-10.74734 6.25796,-17.82157 13.60425,-27.48057 3.12897,-3.94523 8.43463,-12.24382 11.01943,-12.24382 0.68021,0 1.36043,1.63251 1.36043,2.85689"
         style="font-size:139.3074646px;font-style:italic;text-align:end;line-height:77.99999714%;text-anchor:end;fill:#fffff6;font-family:Essays1743;-inkscape-font-specification:Essays1743 Medium"
         id="path4599" />
      <path
         d="m 300.62145,206.62599 c 3.40106,3.5371 7.3463,5.30565 11.69965,5.30565 1.76855,0 3.67315,-0.40812 5.71379,-0.95229 6.66607,-1.90459 8.70672,-7.07422 12.24382,-13.06008 6.25794,-10.6113 8.9788,-17.82157 9.52297,-30.20142 0.13604,-1.76855 0.27208,-3.40106 0.27208,-4.89753 0,-2.5848 -0.54417,-4.89753 -2.72085,-6.80212 -2.99293,-2.5848 -6.25795,-3.80919 -9.65901,-3.80919 -2.85689,0 -5.98587,0.9523 -9.11485,2.17668 -9.11483,4.08127 -11.15548,11.01945 -15.78092,19.8622 -3.40106,6.66607 -5.16961,11.01944 -5.4417,18.50177 0,1.49647 -0.13604,2.85689 -0.13604,4.21732 0,3.67314 0.54417,6.80212 3.40106,9.65901 m 6.25795,-8.9788 c 0,-1.08834 0.27209,-2.44877 0.27209,-3.80919 0.40813,-7.61837 1.9046,-11.97174 5.71378,-18.77386 2.99293,-5.16961 4.89754,-9.25089 10.61131,-11.42756 1.22438,-0.40813 2.44877,-0.68022 3.53711,-0.68022 2.5848,0 5.03357,2.04064 5.03357,4.62545 0,1.22438 -0.27209,2.5848 -0.54417,3.94523 -0.9523,7.48233 -3.12898,11.56361 -6.80213,18.22969 -2.72084,4.89752 -3.67315,8.70672 -8.57067,11.42756 -1.49646,0.9523 -3.12898,1.76855 -4.76148,1.76855 -2.99294,0 -4.48941,-2.58481 -4.48941,-5.30565"
         style="font-size:139.3074646px;font-style:italic;text-align:end;line-height:77.99999714%;text-anchor:end;fill:#fffff6;font-family:Essays1743;-inkscape-font-specification:Essays1743 Medium"
         id="path4601" />
      <path
         d="m 390.00133,168.26202 c 0,5.03356 -4.62544,7.75442 -7.34629,12.5159 -6.53003,11.5636 -10.47527,12.24384 -17.54947,28.97705 l 7.21025,3.26501 c 1.08833,0 2.31272,-0.27208 3.40106,-0.81625 6.80211,-6.39399 10.06715,-15.78093 16.59718,-22.447 8.16253,-10.47526 10.61132,-22.03889 20.40636,-26.93641 0.54417,-0.13604 1.08834,-0.13604 1.63251,-0.13604 2.04064,0 4.08128,0.81626 4.89753,3.40106 -0.9523,4.08127 -2.85689,6.53004 -4.76149,9.79506 -3.80918,9.25087 -8.9788,13.33217 -13.87632,23.67138 -1.76855,1.63251 -2.31273,3.26502 -2.31273,4.89753 0,1.63251 0.54417,3.26502 1.36043,4.89753 2.04063,1.63251 4.21732,2.17668 6.25795,2.17668 2.44876,0 4.89753,-0.68022 6.80212,-1.36043 3.80919,-2.85689 6.25796,-4.08127 9.79506,-7.34629 4.62544,-4.4894 8.02651,-7.61838 10.61131,-13.06007 0.13604,-0.27209 0.13604,-0.40813 0.13604,-0.54417 0,-1.49647 -3.94523,-1.08834 -5.84982,-1.9046 -6.39399,1.63251 -7.07421,8.16255 -11.15548,8.16255 l -0.27209,0 c -0.68021,-1.49647 -1.63251,-2.17668 -1.63251,-3.80919 l 0,-0.27208 c 3.5371,-7.34629 4.62545,-7.48234 7.34629,-11.97174 4.35336,-6.80212 9.52298,-9.52298 11.42757,-17.41343 0.54417,-2.58481 1.22438,-5.16962 1.22438,-7.48234 0,-2.31272 -0.81625,-4.4894 -2.85689,-6.39399 -1.63251,-1.08834 -3.12898,-1.76855 -4.76149,-1.76855 -2.85688,0 -5.84982,1.49646 -9.11484,2.5848 -6.39399,2.17668 -8.84276,5.98587 -14.4205,9.79506 -0.40813,-0.27209 -0.54417,-0.81626 -0.54417,-1.36043 0,-1.6325 1.63251,-4.21731 1.63251,-6.39399 0,-3.67314 -6.80212,-5.4417 -8.84276,-5.4417 -2.44876,0 -4.76149,0.9523 -7.34629,2.85689 -4.4894,3.5371 -10.20319,10.33923 -12.37986,10.33923 -0.27209,0 -0.40813,-0.13604 -0.54417,-0.27209 0.81625,-2.17667 2.04063,-4.21731 2.04063,-6.53003 0,-1.49647 -0.40812,-2.99294 -1.76855,-4.62545 -2.31272,-2.72084 -4.4894,-3.80919 -6.53003,-3.80919 -2.17668,0 -4.48941,1.36043 -6.80213,2.99294 -2.5848,2.31272 -16.46113,9.25089 -16.46113,17.54947 0,0.40813 0,0.9523 0.13604,1.49647 3.26501,-0.9523 5.03357,-2.44876 8.29859,-2.44876 l 0.68021,0 c 2.44876,0.27208 4.62544,0.81625 4.62544,3.5371 0,1.49647 -0.81625,2.99294 -1.36042,4.62544 -2.44876,7.34629 -5.98587,10.47528 -9.79506,17.14135 -3.40105,6.80212 -5.03357,8.43464 -7.89046,17.68552 1.08834,3.80918 4.08128,5.71378 9.25089,5.71378 l 0.54417,0 c 5.30565,-5.16961 4.4894,-11.56361 8.70671,-17.14135 3.80919,-7.34628 4.62545,-12.37987 9.79506,-18.77385 5.03357,-6.39399 7.89047,-13.87633 15.91697,-13.87633 l 0.40812,0 c 2.99293,0.27208 5.03357,2.85689 5.03357,6.25795"
         style="font-size:139.3074646px;font-style:italic;text-align:end;line-height:77.99999714%;text-anchor:end;fill:#fffff6;font-family:Essays1743;-inkscape-font-specification:Essays1743 Medium"
         id="path4603" />
      <path
         d="m 466.59326,198.73553 c 0,3.26501 -1.63251,6.25795 -1.63251,9.11484 0,0.81626 0.13604,1.76855 0.54417,2.58481 l 9.79505,2.44876 c 5.98586,-3.26501 10.8834,-8.57068 15.78093,-13.87633 -0.40813,-5.98586 -6.53005,-6.53004 -10.8834,-12.24382 2.5848,-7.34628 5.98587,-10.33923 8.16255,-17.14135 4.21731,-16.05299 9.52298,-24.75974 17.14135,-39.72439 1.36042,-4.76148 3.94523,-9.11485 3.94523,-13.06008 0,-1.90459 -0.68022,-3.80919 -2.58481,-5.44169 -3.94523,-0.27209 -7.07421,-0.54417 -9.65901,-0.54417 -8.0265,0 -9.9311,1.49647 -11.56361,3.80919 -1.36043,2.99293 -4.76149,4.76148 -4.76149,7.48233 0,2.85689 2.72085,3.80919 5.03357,3.80919 1.08834,0 2.44877,-0.13604 3.80919,-0.13604 0.81626,0 1.63251,0.13604 2.44877,0.27208 -5.71378,11.15547 -3.12898,8.2986 -4.76149,13.60425 -1.76855,5.84982 -2.17668,9.38693 -4.21732,14.96466 -1.90459,-2.85688 -4.35336,-5.03357 -9.11484,-5.03357 -1.76855,0 -3.80919,0.27209 -6.12191,0.9523 -8.29858,5.30565 -12.65195,10.74736 -19.31803,18.77386 -4.62544,7.89045 -8.57067,11.69966 -11.97173,20.13428 -1.76855,4.21731 -3.80919,7.21025 -3.80919,10.8834 0,1.08834 0.13604,2.04063 0.54417,3.26502 1.36042,4.62543 4.35336,7.21025 8.9788,8.57067 1.49647,0.40813 2.85689,0.68021 4.21732,0.68021 3.12897,0 5.84982,-1.22438 9.11484,-3.12897 4.62544,-2.85689 8.29859,-14.69259 9.9311,-14.69259 0.54417,0 0.9523,2.85689 0.9523,3.67315 m -21.22263,-0.68021 c 0,-3.12898 1.22439,-7.3463 3.26502,-11.8357 3.26502,-6.93816 6.12192,-10.8834 10.06714,-17.41343 1.36043,-0.68021 2.8569,-1.08834 4.35336,-1.08834 2.72085,0 7.34629,2.04064 7.34629,5.57774 0,0.81625 -0.13604,1.63251 -0.27208,2.58481 -0.9523,6.66607 -2.99294,10.47527 -7.34629,15.50884 -3.94523,4.48939 -7.89047,11.01943 -12.37987,11.01943 -2.72084,0 -5.03357,-1.90459 -5.03357,-4.35335"
         style="font-size:139.3074646px;font-style:italic;text-align:end;line-height:77.99999714%;text-anchor:end;fill:#fffff6;font-family:Essays1743;-inkscape-font-specification:Essays1743 Medium"
         id="path4605" />
      <path
         d="m 510.80704,195.47051 c 0,-7.75441 2.99293,-10.61132 6.39399,-16.05301 3.80919,-5.98586 5.71379,-10.20319 11.42757,-14.69258 3.5371,-2.72085 6.12191,-5.4417 9.9311,-5.4417 3.94522,0 5.44169,2.44877 5.44169,6.25795 0,2.99293 -1.49647,5.30566 -3.12897,8.43463 -4.08127,8.29858 -7.07422,13.19613 -14.14842,19.04594 -3.94522,3.12898 -7.07421,7.21025 -11.01944,7.21025 -3.26501,0 -4.89752,-1.76855 -4.89752,-4.76148 m 6.93816,15.23675 c 3.80919,-1.49646 4.89753,-4.08127 7.89046,-6.80212 2.44876,-2.17668 6.25796,-8.29859 7.21025,-8.29859 0.13605,0 0.13605,0.13604 0.13605,0.40813 l 0,0.54417 c -0.40813,2.44876 -1.36043,3.94523 -1.36043,6.25795 l 0,0.81626 c 0.27209,3.40105 0.13605,6.25795 2.99293,8.16254 1.63251,1.08834 3.12898,1.49647 4.76149,1.49647 2.31272,0 4.76149,-0.9523 7.48233,-2.04064 2.31272,-0.95229 3.67315,-1.90459 4.89753,-4.08127 0.81626,-1.49647 1.49647,-2.85689 1.49647,-4.35336 0,-0.68021 -0.27209,-1.36042 -0.68021,-2.17668 -0.81626,-1.49646 -2.72085,-0.54417 -4.08128,-1.63251 -1.76855,-1.49646 -2.99293,-2.58481 -3.26501,-4.89753 l 0,-1.08834 c 0,-5.1696 3.5371,-7.75442 5.71378,-12.78799 4.08127,-10.33921 10.74735,-14.96468 12.24382,-26.12014 -0.40813,-2.85689 -2.04064,-5.4417 -4.89753,-5.71379 l -0.40813,0 c -2.72084,0 -3.12898,4.4894 -6.12191,4.89753 l -0.68021,0 c -4.35335,0 -6.12191,-4.89753 -10.74735,-5.16961 l -1.08834,0 c -4.4894,0 -7.48234,1.63251 -11.69965,4.08127 -8.16254,4.76148 -11.97174,9.11485 -17.68552,16.59718 -6.39399,8.43462 -10.06714,13.7403 -12.51591,23.94347 -0.68021,2.99293 -1.49646,5.71378 -1.49646,8.29859 0,1.90459 0.40813,3.80919 1.76855,5.84982 2.17668,3.5371 5.4417,3.80919 9.52297,4.62545 1.63251,0.27208 3.12898,0.54417 4.4894,0.54417 2.04064,0 3.94523,-0.40813 6.12191,-1.36043"
         style="font-size:139.3074646px;font-style:italic;text-align:end;line-height:77.99999714%;text-anchor:end;fill:#fffff6;font-family:Essays1743;-inkscape-font-specification:Essays1743 Medium"
         id="path4607" />
      <path
         d="m 610.52614,165.13304 c 0,-2.99293 -2.44876,-6.25795 -5.71378,-6.25795 -1.36042,0 -2.85689,0.40813 -4.4894,0.68021 -2.5848,0.54417 -3.67315,3.26502 -5.98587,3.26502 l -0.54417,0 c -2.44876,-0.54417 -1.76855,-4.08127 -4.08127,-4.89753 -2.17668,-0.81625 -4.08128,-1.08834 -6.12191,-1.08834 -4.08127,0 -7.89047,1.76856 -11.83569,4.35336 -6.12191,4.35336 -7.21026,9.38694 -9.79506,16.3251 -1.49647,3.67314 -2.99293,6.53004 -2.99293,9.79505 0,0.9523 0.13604,2.04064 0.54417,3.26502 0.81625,2.5848 3.67314,2.44877 4.89752,4.89753 0.68022,1.22438 1.36043,2.31272 1.36043,3.40106 0,1.63251 -1.76855,2.99293 -2.85689,2.99293 -0.40813,0 -0.9523,-0.13604 -1.63251,-0.13604 -1.22438,0 -2.72085,0.13604 -5.03357,1.08834 0.54417,4.89752 6.39399,5.4417 6.53003,10.06714 0,2.04064 -1.22438,3.12898 -2.72084,4.62544 -1.76855,1.76855 -3.40107,1.9046 -5.4417,3.26502 -4.89753,3.12898 -9.52298,3.12898 -12.24382,8.16255 -0.9523,1.63251 -1.36043,3.26502 -1.36043,4.89753 0,1.63251 0.40813,3.26502 1.36043,4.89753 2.44876,4.76148 6.25796,6.12191 11.42756,7.89046 3.94523,1.36042 7.07421,1.76855 10.47527,1.76855 2.72085,0 5.4417,-0.27209 9.11485,-0.68021 6.1219,-0.68021 9.9311,-0.9523 15.50883,-4.08128 2.99294,-1.76855 5.4417,-3.12898 6.53004,-6.53003 0.54417,-1.9046 0.9523,-3.67315 0.9523,-5.30566 0,-3.26501 -1.22439,-6.25795 -3.40106,-9.38693 -5.71378,-7.89045 -17.68552,-2.72085 -22.03888,-11.42756 -0.27208,-0.54417 -0.27208,-0.9523 -0.27208,-1.49647 0,-1.08834 0.54417,-2.17668 1.08834,-3.40106 1.22438,-2.99293 2.31272,-4.62545 4.89752,-6.53004 2.17668,-1.36042 4.21732,-0.68021 6.53004,-1.90459 5.44169,-1.76855 6.394,-4.48941 8.9788,-7.89046 2.99293,-6.25795 3.12898,-12.37987 3.12898,-16.18906 l 0,-1.49646 c 0,-0.81626 0,-1.49647 0.13604,-1.9046 1.63251,-1.08833 2.58481,-3.40106 4.21732,-3.40106 2.5848,0 0.54417,3.53711 2.31272,4.21732 0.81625,0.40813 1.63251,0.54417 2.44876,0.54417 3.12898,0 6.12191,-2.99294 6.12191,-6.394 m -57.00178,64.076 c 1.76855,-4.21732 5.30566,-5.30566 9.79505,-6.53004 1.49647,-0.40813 2.72085,-0.54417 3.80919,-0.54417 2.31272,0 4.21732,0.54417 6.80213,1.36042 3.80918,1.08834 7.0742,1.36043 8.9788,4.89753 1.08834,1.90459 1.63251,3.94523 1.63251,5.84983 0,2.04063 -0.68022,4.08127 -2.44877,5.57774 -3.12897,0.68021 -5.4417,0.81625 -7.48233,0.81625 -4.4894,0 -7.07421,-1.08834 -10.47527,-1.63251 -4.08127,-1.08834 -7.21025,-1.49647 -9.79506,-4.89753 -0.68021,-0.95229 -1.22438,-2.04063 -1.22438,-3.12897 0,-0.54417 0.13604,-1.22439 0.40813,-1.76855 m 14.82863,-40.6767 c 0,-1.90459 0.54417,-3.94523 1.08833,-6.12191 1.22439,-6.1219 1.63252,-10.8834 6.66608,-14.69258 1.08834,-0.81625 2.04064,-1.08834 3.12898,-1.08834 2.72085,0 5.4417,0.68021 6.66608,2.72085 0.9523,1.76855 1.36043,3.5371 1.36043,5.16961 0,3.12898 -1.36043,6.25796 -2.17668,10.33923 -3.80919,3.80918 -4.62545,9.65901 -11.15548,9.65901 -3.26502,0 -5.57774,-2.58481 -5.57774,-5.98587"
         style="font-size:139.3074646px;font-style:italic;text-align:end;line-height:77.99999714%;text-anchor:end;fill:#fffff6;font-family:Essays1743;-inkscape-font-specification:Essays1743 Medium"
         id="path4609" />
      <path
         d="m 622.08975,195.47051 c 0,-7.75441 2.99294,-10.61132 6.394,-16.05301 3.80918,-5.98586 5.71378,-10.20319 11.42756,-14.69258 3.5371,-2.72085 6.12192,-5.4417 9.9311,-5.4417 3.94523,0 5.4417,2.44877 5.4417,6.25795 0,2.99293 -1.49647,5.30566 -3.12898,8.43463 -4.08127,8.29858 -7.07421,13.19613 -14.14841,19.04594 -3.94523,3.12898 -7.07421,7.21025 -11.01944,7.21025 -3.26502,0 -4.89753,-1.76855 -4.89753,-4.76148 m 6.93817,15.23675 c 3.80918,-1.49646 4.89753,-4.08127 7.89046,-6.80212 2.44876,-2.17668 6.25795,-8.29859 7.21025,-8.29859 0.13604,0 0.13604,0.13604 0.13604,0.40813 l 0,0.54417 c -0.40813,2.44876 -1.36042,3.94523 -1.36042,6.25795 l 0,0.81626 c 0.27208,3.40105 0.13604,6.25795 2.99293,8.16254 1.63251,1.08834 3.12898,1.49647 4.76149,1.49647 2.31271,0 4.76148,-0.9523 7.48233,-2.04064 2.31272,-0.95229 3.67315,-1.90459 4.89753,-4.08127 0.81625,-1.49647 1.49646,-2.85689 1.49646,-4.35336 0,-0.68021 -0.27208,-1.36042 -0.68021,-2.17668 -0.81625,-1.49646 -2.72085,-0.54417 -4.08127,-1.63251 -1.76855,-1.49646 -2.99294,-2.58481 -3.26502,-4.89753 l 0,-1.08834 c 0,-5.1696 3.53711,-7.75442 5.71378,-12.78799 4.08127,-10.33921 10.74736,-14.96468 12.24382,-26.12014 -0.40812,-2.85689 -2.04064,-5.4417 -4.89752,-5.71379 l -0.40813,0 c -2.72085,0 -3.12898,4.4894 -6.12191,4.89753 l -0.68021,0 c -4.35336,0 -6.12192,-4.89753 -10.74736,-5.16961 l -1.08834,0 c -4.48939,0 -7.48234,1.63251 -11.69965,4.08127 -8.16254,4.76148 -11.97174,9.11485 -17.68552,16.59718 -6.39398,8.43462 -10.06714,13.7403 -12.5159,23.94347 -0.68021,2.99293 -1.49647,5.71378 -1.49647,8.29859 0,1.90459 0.40813,3.80919 1.76855,5.84982 2.17668,3.5371 5.44171,3.80919 9.52298,4.62545 1.6325,0.27208 3.12897,0.54417 4.4894,0.54417 2.04063,0 3.94523,-0.40813 6.12191,-1.36043"
         style="font-size:139.3074646px;font-style:italic;text-align:end;line-height:77.99999714%;text-anchor:end;fill:#fffff6;font-family:Essays1743;-inkscape-font-specification:Essays1743 Medium"
         id="path4611" />
      <path
         d="m 687.79825,164.86096 c 0,2.44876 -1.49647,5.71378 -2.17668,8.57067 -2.58481,8.84275 -8.02651,12.10779 -12.10778,20.27033 -2.04063,4.08127 -5.57774,6.93817 -5.57774,10.61131 0,3.80918 2.72085,5.98587 5.84982,5.98587 0.40813,0 0.81626,-0.13605 1.22439,-0.13605 3.94522,-0.68021 4.76148,-4.21732 7.34629,-7.34629 5.84982,-7.61837 7.21025,-13.33217 13.06007,-21.22262 5.30565,-6.93816 6.53005,-17.14135 14.96467,-17.14135 l 0.54417,0 c 2.44876,0.13604 1.36043,4.62544 3.67315,4.89753 l 0.40813,0 c 2.04063,0 2.85689,-2.17668 4.08127,-3.94523 1.90459,-2.85689 3.94523,-5.30566 3.94523,-8.16255 0,-0.81625 -0.13604,-1.76855 -0.68021,-2.72085 -0.9523,-1.76855 -2.58481,-2.04063 -4.4894,-2.04063 l -1.76855,0 c -2.85689,0.13604 -4.08128,1.76855 -6.80213,2.99293 -3.5371,0.9523 -3.80919,4.89753 -9.79505,7.34629 -0.81626,-3.67314 0.54416,-6.80212 -2.17668,-9.52297 -1.63251,-1.22438 -3.26502,-1.90459 -5.03357,-1.90459 -1.49647,0 -3.12898,0.40812 -4.76149,0.81625 -2.72084,0.68021 -3.67315,2.44877 -5.98587,4.08127 0,0 -7.61837,5.16962 -7.61837,11.8357 0,0.68021 0.13604,1.36042 0.27208,2.04063 3.94523,-3.12897 5.84983,-9.38693 9.65902,-9.38693 2.44876,0 3.94523,2.04064 3.94523,4.08128"
         style="font-size:139.3074646px;font-style:italic;text-align:end;line-height:77.99999714%;text-anchor:end;fill:#fffff6;font-family:Essays1743;-inkscape-font-specification:Essays1743 Medium"
         id="path4613" />
      <path
         d="m 762.21349,164.86096 c 0,2.5848 -1.36043,4.21732 -1.9046,6.93816 -1.08833,5.4417 -1.63251,8.43464 -2.5848,13.87633 -1.90459,5.16961 -6.394,1.2244 -13.60425,17.14135 0,5.16961 1.36043,6.394 2.44877,8.16255 1.36042,0.27208 2.72085,0.40812 3.94523,0.40812 3.12897,0 5.84983,-0.68021 8.84276,-0.68021 3.26501,-2.17667 5.16961,-2.99293 8.43463,-5.4417 3.80918,-2.99293 8.70672,-3.80919 8.70672,-9.79505 0,-2.44876 -1.08835,-4.62545 -3.40107,-5.71378 -0.54417,-0.27209 -1.08834,-0.40813 -1.49646,-0.40813 -1.36043,0 -2.44877,1.08834 -4.62545,2.04064 -0.27208,0.13604 -0.40812,0.13604 -0.54417,0.13604 -0.27208,0 -0.40812,-0.27209 -0.40812,-0.68021 0,-1.36043 1.36042,-4.35336 1.76855,-5.98587 2.04063,-6.80212 7.48233,-9.2509 8.16255,-16.3251 0.27208,-2.44876 0.54417,-4.89753 0.54417,-7.21025 0,-4.89752 -1.22439,-9.25088 -5.71379,-11.83569 -0.81625,-0.40813 -1.49646,-0.54417 -2.17668,-0.54417 -2.5848,0 -4.89753,2.58481 -8.16254,3.40106 -6.66608,5.98586 -11.15549,9.11485 -13.06008,12.92404 0.81626,-3.80919 2.17668,-5.84983 2.17668,-9.52298 l 0,-0.54417 c -0.13604,-2.85688 -1.36042,-4.35336 -2.17668,-7.0742 -1.36042,-0.81626 -2.58481,-1.22438 -3.80919,-1.22438 -3.12897,0 -6.12191,2.31272 -10.06714,4.4894 -5.03356,5.03356 -10.8834,7.89046 -14.69258,14.69258 0.27208,0.68021 0.27208,1.49647 0.27208,2.17668 l 0,0.40813 c 0,1.76855 0.40813,3.40106 2.44877,3.40106 2.99293,0 4.89753,-5.4417 7.75442,-5.4417 2.04063,0 2.85689,1.9046 2.85689,3.67315 0,0.40812 -0.13604,0.95229 -0.13604,1.49646 -0.27209,5.57774 -3.53711,8.02651 -5.84983,13.06008 -2.5848,6.25794 -7.07421,7.21026 -9.9311,18.63781 1.63251,7.48233 5.57775,9.52297 10.33923,9.52297 1.08834,0 2.31272,-0.13604 3.5371,-0.27208 3.94523,-0.9523 2.17668,-6.53004 6.12191,-11.01944 5.30565,-10.74734 6.25796,-17.82157 13.60425,-27.48057 3.12897,-3.94523 8.43463,-12.24382 11.01943,-12.24382 0.68022,0 1.36043,1.63251 1.36043,2.85689"
         style="font-size:139.3074646px;font-style:italic;text-align:end;line-height:77.99999714%;text-anchor:end;fill:#fffff6;font-family:Essays1743;-inkscape-font-specification:Essays1743 Medium"
         id="path4615" />
      <path
         d="m 795.13577,195.47051 c 0,-7.75441 2.99294,-10.61132 6.394,-16.05301 3.80918,-5.98586 5.71379,-10.20319 11.42756,-14.69258 3.5371,-2.72085 6.12192,-5.4417 9.9311,-5.4417 3.94523,0 5.4417,2.44877 5.4417,6.25795 0,2.99293 -1.49647,5.30566 -3.12898,8.43463 -4.08127,8.29858 -7.07421,13.19613 -14.14841,19.04594 -3.94523,3.12898 -7.07421,7.21025 -11.01944,7.21025 -3.26502,0 -4.89753,-1.76855 -4.89753,-4.76148 m 6.93817,15.23675 c 3.80918,-1.49646 4.89753,-4.08127 7.89046,-6.80212 2.44876,-2.17668 6.25795,-8.29859 7.21025,-8.29859 0.13604,0 0.13604,0.13604 0.13604,0.40813 l 0,0.54417 c -0.40813,2.44876 -1.36042,3.94523 -1.36042,6.25795 l 0,0.81626 c 0.27208,3.40105 0.13604,6.25795 2.99293,8.16254 1.63251,1.08834 3.12898,1.49647 4.76149,1.49647 2.31271,0 4.76148,-0.9523 7.48233,-2.04064 2.31272,-0.95229 3.67315,-1.90459 4.89753,-4.08127 0.81625,-1.49647 1.49647,-2.85689 1.49647,-4.35336 0,-0.68021 -0.27209,-1.36042 -0.68022,-2.17668 -0.81625,-1.49646 -2.72085,-0.54417 -4.08127,-1.63251 -1.76855,-1.49646 -2.99293,-2.58481 -3.26502,-4.89753 l 0,-1.08834 c 0,-5.1696 3.53711,-7.75442 5.71378,-12.78799 4.08127,-10.33921 10.74736,-14.96468 12.24382,-26.12014 -0.40812,-2.85689 -2.04064,-5.4417 -4.89752,-5.71379 l -0.40813,0 c -2.72085,0 -3.12898,4.4894 -6.12191,4.89753 l -0.68021,0 c -4.35336,0 -6.12192,-4.89753 -10.74736,-5.16961 l -1.08834,0 c -4.48939,0 -7.48234,1.63251 -11.69965,4.08127 -8.16254,4.76148 -11.97174,9.11485 -17.68552,16.59718 -6.39398,8.43462 -10.06714,13.7403 -12.5159,23.94347 -0.68021,2.99293 -1.49647,5.71378 -1.49647,8.29859 0,1.90459 0.40813,3.80919 1.76855,5.84982 2.17668,3.5371 5.44171,3.80919 9.52298,4.62545 1.6325,0.27208 3.12897,0.54417 4.4894,0.54417 2.04063,0 3.94523,-0.40813 6.12191,-1.36043"
         style="font-size:139.3074646px;font-style:italic;text-align:end;line-height:77.99999714%;text-anchor:end;fill:#fffff6;font-family:Essays1743;-inkscape-font-specification:Essays1743 Medium"
         id="path4617" />
      <path
         d="m 610.25185,308.79406 c 0.56809,0 6.93077,-0.22724 19.20161,-0.90895 1.2498,-1.59066 2.386,-2.95409 3.40856,-3.97666 0.90896,-1.02257 1.47705,-1.70429 1.70429,-1.93153 0.79533,-0.90895 1.8179,-4.31752 3.06771,-10.11209 -1.8179,-1.2498 -3.52219,-1.93152 -5.11285,-1.93152 -1.59067,0 -3.52219,0.5681 -5.79457,1.47705 -0.45448,0.45447 -0.68171,1.13619 -0.68171,1.8179 l 0.34085,2.9541 c 0,0.45447 -0.11362,0.68171 -0.34085,0.90895 l -10.90743,0 c 0.79534,-1.93152 1.24981,-3.06772 1.24981,-3.29495 l 0,-0.11362 c 0,-0.11362 0.22724,-1.13619 0.79534,-2.9541 1.02257,-1.59066 3.29495,-4.09028 6.81713,-7.38523 3.40857,-3.18133 5.68095,-6.70352 6.70352,-10.33933 0.90896,-3.6358 1.47705,-6.47628 1.47705,-8.63504 0,-3.74942 -1.24981,-6.81714 -3.74943,-9.20314 -2.49961,-2.38599 -5.11285,-3.6358 -8.06694,-3.6358 -2.95409,0 -6.58991,0.79533 -10.79381,2.15876 -4.09027,1.36342 -6.93075,2.61324 -8.4078,3.74942 -1.36343,1.13619 -2.9541,3.06772 -4.772,5.79457 -1.8179,2.72685 -2.72685,4.43114 -2.72685,5.11286 0,0.68171 0.68171,2.15876 2.04514,4.43114 1.59066,-1.36343 2.95409,-2.84048 4.2039,-4.43114 1.13619,-1.59067 2.27238,-2.9541 3.18133,-3.86305 0.90895,-0.90895 2.27238,-1.70428 4.09029,-2.386 1.8179,-0.68171 3.63581,-1.02257 5.45371,-1.02257 1.70428,0 3.18133,0.79534 4.54476,2.15876 1.2498,1.47705 1.93152,3.18134 1.93152,4.99924 0,1.93152 -0.68172,4.2039 -1.93152,6.70352 -2.49962,4.77199 -6.24905,9.43038 -11.3619,14.20237 -5.22647,4.77199 -9.20314,9.544 -12.15723,14.31599 -0.79533,1.24981 -1.13619,2.386 -1.13619,3.29495 0,1.02257 0.34086,1.47705 1.13619,1.47705 l 16.58837,0.56809"
         style="font-size:116.34583282px;text-align:end;line-height:77.99999714%;text-anchor:end;fill:#fffff6;font-family:Essays1743;-inkscape-font-specification:Essays1743 Medium"
         id="path4619" />
      <path
         d="m 700.69256,302.31778 c 2.27237,-2.72685 4.09028,-6.13543 5.45371,-10.33933 1.36342,-4.20389 2.04514,-8.29419 2.04514,-12.27085 0,-3.86304 -1.13619,-7.72609 -3.40857,-11.58913 -2.27238,-3.74942 -4.65838,-6.36267 -7.158,-7.95333 -2.49961,-1.59066 -6.02181,-2.9541 -10.56656,-4.31752 -4.54476,-1.36343 -8.40781,-2.04514 -11.58914,-2.04514 -3.18133,0 -6.36266,0.68171 -9.65761,2.04514 -3.18133,1.36342 -5.79457,2.95409 -7.72609,4.772 -2.04514,1.8179 -3.97667,4.65838 -5.79457,8.4078 -1.93152,3.74942 -2.84047,7.49886 -2.84047,11.13466 0,3.74942 0.68171,7.49886 2.15876,11.24828 1.36342,3.74942 3.29495,6.70352 5.79457,8.9759 2.38599,2.27237 5.79457,4.65838 10.33932,7.15799 4.43114,2.49962 8.52143,3.74943 12.27085,3.74943 3.63581,0 7.49886,-0.79534 11.3619,-2.386 3.86304,-1.59066 7.04438,-3.86305 9.31676,-6.5899 m -16.81561,-3.06771 c -2.15876,1.13619 -3.97667,1.59066 -5.45371,1.59066 -1.59067,0 -3.40858,-0.22724 -5.68095,-0.90895 -2.27238,-0.68171 -4.43114,-1.59067 -6.36267,-2.95409 -2.04513,-1.24981 -3.74942,-3.18134 -5.11285,-5.79457 -1.36343,-2.49961 -2.04514,-4.88562 -2.04514,-7.04438 0,-2.04514 0.34086,-4.43114 1.13619,-7.15799 1.47704,-5.45371 4.20391,-9.20314 8.18057,-11.24828 2.72685,-1.36343 5.45371,-2.15876 7.95332,-2.15876 2.49962,0 4.88562,0.56809 7.158,1.47705 2.27238,0.90895 3.97666,1.93152 5.11285,3.06771 1.13619,1.13619 2.386,3.18133 3.86305,6.0218 1.36342,2.84048 2.15876,5.3401 2.15876,7.38524 0,2.04514 -0.22724,3.97666 -0.68171,5.68095 -1.59067,5.34008 -4.99925,9.31676 -10.22571,12.04361"
         style="font-size:116.34583282px;text-align:end;line-height:77.99999714%;text-anchor:end;fill:#fffff6;font-family:Essays1743;-inkscape-font-specification:Essays1743 Medium"
         id="path4621" />
      <path
         d="m 733.07397,263.23285 c 0.79533,0 1.47704,0.5681 1.93152,1.47705 l 0,18.29265 c 0,1.02257 -0.11362,6.36268 -0.34086,16.1339 -0.45447,0.90895 -1.02257,1.36343 -1.8179,1.36343 l -2.49962,-0.34086 c -1.02257,0 -1.8179,0.79533 -2.49962,2.27238 -0.68171,1.47704 -0.90895,2.95409 -0.90895,4.43114 0,1.47704 0.5681,2.15876 1.8179,2.15876 3.18133,0 12.95258,-0.11362 29.3137,-0.45448 0,-0.90895 -0.34086,-2.15876 -0.90895,-3.97666 -0.5681,-1.70428 -1.13619,-2.95409 -1.70429,-3.74943 -0.34085,-0.22723 -0.79533,-0.34085 -1.47704,-0.34085 -0.68172,0 -1.13619,-0.22724 -1.24981,-0.68172 l 0,-14.77046 -0.11362,-20.22418 c 0.11362,-1.47705 0.68172,-1.93152 1.93152,-1.36343 0.34086,0.22724 0.68172,0 0.90895,-0.45448 0.68172,-1.59066 1.13619,-3.18133 1.13619,-4.54476 0,-2.61323 -1.13619,-4.88561 -3.18133,-6.70351 l -22.49655,0 c -1.81791,1.36342 -2.61324,3.29495 -2.61324,5.90818 0,1.13619 0.22724,2.386 0.68171,3.74943 0.45448,1.47704 1.02257,2.15876 1.93153,2.15876 l 2.15876,-0.34086"
         style="font-size:116.34583282px;text-align:end;line-height:77.99999714%;text-anchor:end;fill:#fffff6;font-family:Essays1743;-inkscape-font-specification:Essays1743 Medium"
         id="path4623" />
      <path
         d="m 796.01888,292.31931 2.72685,-9.31676 c 0.22724,-0.79533 0.5681,-1.59066 0.79534,-2.27238 0.34085,-0.68171 0.56809,-1.93152 1.02257,-3.74942 l 0.56809,-2.49962 c 0.22724,-0.90895 0.45448,-2.386 0.90895,-4.54476 0.45448,-2.04514 0.90896,-4.31752 1.47705,-6.70352 l 0.56809,0 3.40857,-0.22724 c 1.13619,0 1.81791,0.68172 1.81791,1.81791 l -0.79534,4.09028 c 0,0.79533 0.22724,1.36343 0.68172,1.8179 2.95409,0.45448 5.11285,0.5681 6.36266,0.5681 l 4.2039,-0.22724 c 2.27238,0 5.79458,0.22724 10.56657,0.5681 l 1.24981,-2.04515 c 0.68171,-1.2498 1.47704,-2.95409 2.27238,-5.22647 0.79533,-2.27238 1.24981,-4.2039 1.24981,-6.0218 0,-3.63581 -1.59067,-6.58991 -4.54476,-8.86228 -3.06771,-2.27238 -5.45372,-3.40857 -7.04438,-3.40857 -2.27238,0 -3.29495,1.70428 -3.29495,4.99923 l 0,2.04514 c 0,3.52219 -1.36343,5.22648 -3.97666,5.22648 -0.45448,0 -1.36343,-0.22724 -2.84048,-0.68172 -1.59066,-0.45447 -3.06771,-1.93152 -4.65838,-4.2039 -1.59066,-2.27238 -2.95409,-3.52219 -4.2039,-3.52219 -0.45447,0 -0.79533,0.11362 -1.02257,0.11362 l -3.06771,5.11285 c -4.31752,7.15799 -6.93076,12.27086 -8.06695,15.33857 -1.13619,3.06771 -2.9541,10.22572 -5.34009,21.47398 l -2.84048,12.83895 c 0.34086,0.90895 1.24981,1.36343 2.72686,1.36343 l 0.68171,0 c 2.15876,-0.22724 4.54476,-1.59067 7.04438,-4.20391 2.49961,-2.61323 4.88562,-4.2039 7.158,-4.77199 2.27237,-0.45448 4.31752,-0.79534 5.90818,-0.79534 1.59067,0 3.06772,0.79534 4.43114,2.27238 2.72685,3.40857 4.2039,7.04438 4.2039,11.13466 0,6.24904 -2.49962,11.58914 -7.27161,15.79304 -2.72685,2.49962 -6.02181,3.63581 -9.77123,3.63581 -1.36343,0 -3.06772,-0.11362 -4.88562,-0.5681 -1.8179,-0.34085 -3.06771,-1.8179 -3.86304,-4.2039 -0.34086,-0.90895 -0.90896,-1.70428 -1.70429,-2.386 -0.90895,-0.68171 -2.15876,-1.02257 -3.86304,-1.02257 -1.81791,0 -3.40857,0.79534 -4.88562,2.386 -1.47704,1.59066 -2.15876,3.18133 -2.15876,4.54476 0,1.47704 0.34086,2.72686 1.02257,3.86304 1.13619,2.27238 2.72686,3.86305 4.54476,4.772 1.8179,1.02257 4.2039,1.93152 7.04438,2.61324 2.84047,0.68171 5.22647,1.02257 7.27161,1.02257 2.04514,0 4.99924,-0.79534 9.08952,-2.386 4.09028,-1.59066 7.72609,-3.74943 11.13466,-6.47628 3.29495,-2.61324 6.24905,-6.47629 8.9759,-11.70276 2.61323,-5.22646 3.97666,-9.54399 3.97666,-13.1798 0,-3.6358 -0.79533,-6.93076 -2.27238,-10.11209 -1.2498,-2.27237 -3.40857,-3.97666 -6.36266,-4.88561 -2.95409,-0.90895 -5.79457,-1.47705 -8.4078,-1.47705 -2.61324,0 -8.63506,0.79533 -17.9518,2.27238"
         style="font-size:116.34583282px;text-align:end;line-height:77.99999714%;text-anchor:end;fill:#fffff6;font-family:Essays1743;-inkscape-font-specification:Essays1743 Medium"
         id="path4625" />
    </g>
  </g>
</svg>
